<?xml version="1.0" encoding="utf-8"?>
<!-- Generator: Adobe Illustrator 24.0.2, SVG Export Plug-In . SVG Version: 6.00 Build 0)  -->
<svg version="1.1" xmlns="http://www.w3.org/2000/svg" xmlns:xlink="http://www.w3.org/1999/xlink" x="0px" y="0px"
	 viewBox="0 0 30 30" style="enable-background:new 0 0 30 30;" xml:space="preserve">
<style type="text/css">
	.st0{fill:none;}
	.st1{fill:#010101;}
	.st2{opacity:0.41;}
	.st3{fill:none;stroke:#E6E7E8;stroke-width:4.936625e-02;stroke-miterlimit:10;}
	.st4{fill:none;stroke:#EC008C;stroke-width:0.2806;stroke-miterlimit:10;}
	.st5{opacity:0.41;fill:none;stroke:#00C0F3;stroke-width:0.2809;}
	.st6{fill:none;stroke:#000000;stroke-width:0.75;stroke-miterlimit:10;}
	.st7{fill:none;stroke:#000000;stroke-width:4;stroke-linejoin:round;stroke-miterlimit:10;}
	.st8{fill:none;stroke:#000000;stroke-width:4;stroke-miterlimit:10;}
	.st9{fill:none;stroke:#000000;stroke-miterlimit:10;}
	.st10{fill:none;stroke:#1B1B1B;stroke-width:4;stroke-linecap:round;stroke-linejoin:round;stroke-miterlimit:10;}
	.st11{fill:#1B1B1B;}
	.st12{fill:none;stroke:#1B1B1B;stroke-width:4;stroke-miterlimit:10;}
	.st13{fill:none;stroke:#010101;stroke-width:0.75;stroke-miterlimit:10;}
	.st14{fill:none;stroke:#010101;stroke-width:4;stroke-miterlimit:10;}
	.st15{fill:#E6E7E8;}
	.st16{fill:#EC008C;}
	.st17{fill:#00C0F3;}
	.st18{fill:none;stroke:#010101;stroke-width:5;stroke-miterlimit:10;}
	.st19{fill:none;stroke:#000000;stroke-width:4;stroke-linecap:round;stroke-linejoin:round;stroke-miterlimit:10;}
	.st20{fill:none;stroke:#010101;stroke-miterlimit:10;}
	.st21{fill:none;stroke:#000000;stroke-width:3;stroke-miterlimit:10;}
	.st22{fill:#EE2624;}
</style>
<g id="icon">
</g>
<g id="Icon_KEYLINE">
</g>
<g id="Guides">
	<g>
		<path class="st13" d="M8.6,7.2l0,12.7c0,3.6,2.9,6.4,6.4,6.4h0c3.6,0,6.4-2.9,6.4-6.4l0-12.7C19.8,2.7,10.2,2.9,8.6,7.2z"/>
		<path class="st13" d="M15,6.1L15,6.1c-0.8,0-1.4,0.6-1.4,1.4v1v0v1c0,0.8,0.6,1.4,1.4,1.4h0c0.8,0,1.4-0.6,1.4-1.4v-1v0v-1
			C16.4,6.7,15.8,6.1,15,6.1z"/>
		<line class="st13" x1="15" y1="10.8" x2="15" y2="15.4"/>
		<line class="st13" x1="15" y1="3.7" x2="15" y2="6.2"/>
	</g>
</g>
</svg>
