<?xml version="1.0" encoding="utf-8"?>
<!-- Generator: Adobe Illustrator 15.1.0, SVG Export Plug-In . SVG Version: 6.00 Build 0)  -->
<!DOCTYPE svg PUBLIC "-//W3C//DTD SVG 1.1//EN" "http://www.w3.org/Graphics/SVG/1.1/DTD/svg11.dtd">
<svg version="1.1" id="Layer_1" xmlns="http://www.w3.org/2000/svg" xmlns:xlink="http://www.w3.org/1999/xlink" x="0px" y="0px"
	 width="150px" height="150px" viewBox="0 0 150 150" enable-background="new 0 0 150 150" xml:space="preserve">
<g display="none">
	<path display="inline" d="M141.688,105.676h-7.961V36.84c0-1.631-1.32-2.952-2.953-2.952h-13.205c-1.631,0-2.951,1.321-2.951,2.952
		c0,1.63,1.32,2.952,2.951,2.952h10.254v65.883h-105V39.792h10.251c1.631,0,2.952-1.322,2.952-2.952
		c0-1.631-1.321-2.952-2.952-2.952H19.869c-1.631,0-2.952,1.321-2.952,2.952v68.835H8.952c-1.63,0-2.952,1.322-2.952,2.955v16.796
		c0,5.118,4.166,9.282,9.286,9.282h120.067c5.123,0,9.287-4.164,9.287-9.282V108.63
		C144.641,106.998,143.316,105.676,141.688,105.676z M138.734,125.427c0,1.862-1.518,3.378-3.383,3.378H15.286
		c-1.864,0-3.381-1.516-3.381-3.378V111.58h126.832v13.847H138.734z"/>
	<path display="inline" d="M65.75,123.146h19.141c1.631,0,2.952-1.322,2.952-2.953s-1.321-2.951-2.952-2.951H65.75
		c-1.631,0-2.952,1.32-2.952,2.951S64.119,123.146,65.75,123.146z"/>
	<path display="inline" d="M39.47,64.712l7.578,1.508c0.474,1.389,1.048,2.738,1.717,4.035l-4.159,6.506
		c-0.674,1.05-0.61,2.409,0.15,3.396c2.181,2.819,4.732,5.323,7.583,7.435c1.005,0.745,2.363,0.775,3.397,0.082l6.42-4.287
		c1.311,0.641,2.671,1.188,4.066,1.633l1.655,7.543c0.269,1.217,1.271,2.139,2.508,2.297c1.651,0.213,3.3,0.317,4.901,0.317
		c0.141,0,0.28,0,0.419-0.003c1.738-0.018,3.521-0.16,5.297-0.419c1.234-0.181,2.223-1.12,2.467-2.344l1.51-7.575
		c1.393-0.475,2.74-1.051,4.039-1.721l6.502,4.162c1.053,0.673,2.414,0.611,3.394-0.148c2.815-2.172,5.315-4.723,7.438-7.578
		c0.741-1.004,0.776-2.363,0.082-3.4l-4.295-6.424c0.646-1.312,1.189-2.671,1.637-4.068L111.324,64
		c1.222-0.268,2.14-1.274,2.298-2.514c0.229-1.811,0.334-3.599,0.313-5.308c-0.016-1.729-0.16-3.515-0.427-5.307
		c-0.183-1.233-1.122-2.219-2.344-2.463l-7.575-1.506c-0.473-1.389-1.048-2.738-1.714-4.035l4.16-6.505
		c0.675-1.051,0.61-2.409-0.149-3.396c-2.181-2.82-4.729-5.323-7.58-7.434c-1.006-0.743-2.363-0.773-3.398-0.083l-6.418,4.29
		c-1.313-0.644-2.676-1.192-4.075-1.638l-1.653-7.542c-0.269-1.219-1.273-2.138-2.511-2.295c-1.772-0.225-3.522-0.332-5.321-0.321
		c-1.731,0.021-3.515,0.164-5.292,0.423c-1.239,0.18-2.229,1.119-2.471,2.345l-1.506,7.578c-1.391,0.474-2.737,1.046-4.036,1.716
		l-6.506-4.162c-1.049-0.672-2.41-0.613-3.399,0.152c-2.818,2.182-5.316,4.732-7.427,7.578c-0.742,1-0.777,2.359-0.083,3.396
		l4.287,6.423c-0.644,1.313-1.19,2.673-1.635,4.072l-7.549,1.656c-1.22,0.269-2.138,1.276-2.295,2.515
		c-0.223,1.786-0.33,3.571-0.313,5.3c0.011,1.74,0.154,3.528,0.422,5.319C37.311,63.487,38.25,64.471,39.47,64.712z M42.678,54.429
		l7.173-1.575c1.093-0.24,1.956-1.079,2.228-2.164c0.532-2.114,1.345-4.135,2.415-6.005c0.556-0.972,0.514-2.174-0.109-3.106
		l-4.074-6.103c1.054-1.249,2.202-2.419,3.437-3.502l6.178,3.954c0.941,0.602,2.147,0.622,3.106,0.046
		c1.852-1.107,3.856-1.96,5.957-2.535c1.08-0.294,1.901-1.174,2.117-2.271l1.433-7.198c0.828-0.071,1.649-0.113,2.452-0.123
		c0.813-0.004,1.638,0.019,2.462,0.075l1.574,7.165c0.242,1.094,1.078,1.957,2.162,2.23c2.113,0.533,4.136,1.344,6.01,2.417
		c0.971,0.554,2.17,0.514,3.105-0.108l6.1-4.076c1.25,1.054,2.423,2.203,3.504,3.436l-3.954,6.181
		c-0.604,0.943-0.621,2.145-0.048,3.106c1.105,1.848,1.959,3.853,2.531,5.956c0.297,1.08,1.176,1.901,2.273,2.119l7.2,1.433
		c0.071,0.83,0.114,1.652,0.121,2.458c0.011,0.798-0.015,1.62-0.073,2.455l-7.171,1.576c-1.093,0.24-1.953,1.075-2.228,2.16
		c-0.533,2.113-1.348,4.134-2.418,6.006c-0.555,0.972-0.511,2.175,0.11,3.104l4.079,6.104c-1.059,1.252-2.205,2.424-3.438,3.504
		l-6.18-3.957c-0.943-0.602-2.15-0.618-3.105-0.045c-1.85,1.108-3.856,1.961-5.961,2.537c-1.076,0.293-1.897,1.172-2.112,2.271
		l-1.437,7.2c-0.828,0.07-1.648,0.109-2.459,0.115c-0.813,0.014-1.627-0.011-2.457-0.067l-1.572-7.169
		c-0.239-1.094-1.076-1.957-2.16-2.229c-2.113-0.535-4.134-1.348-6.007-2.416c-0.973-0.559-2.177-0.514-3.104,0.108l-6.101,4.075
		c-1.252-1.055-2.424-2.203-3.506-3.44l3.951-6.18c0.604-0.943,0.622-2.147,0.046-3.107c-1.105-1.847-1.958-3.852-2.531-5.955
		c-0.296-1.079-1.177-1.9-2.272-2.117l-7.205-1.434c-0.071-0.825-0.11-1.645-0.115-2.452C42.601,56.081,42.624,55.257,42.678,54.429
		z"/>
	<path display="inline" d="M75.308,72.579c0.058,0,0.112,0,0.168-0.001c4.277-0.042,8.284-1.746,11.28-4.8
		c2.996-3.054,4.621-7.092,4.58-11.372c-0.04-4.278-1.749-8.284-4.807-11.28c-3.014-2.957-6.984-4.578-11.198-4.578
		c-0.057,0-0.113,0-0.172,0c-4.28,0.041-8.286,1.747-11.282,4.803c-2.993,3.055-4.619,7.095-4.577,11.377
		C59.395,65.504,66.562,72.579,75.308,72.579z M68.096,49.484c1.891-1.931,4.418-3.007,7.122-3.032c0.036,0,0.073,0,0.107,0
		c2.661,0,5.168,1.023,7.069,2.89c1.935,1.891,3.01,4.421,3.037,7.124c0.027,2.701-1.002,5.249-2.892,7.177
		c-1.894,1.93-4.42,3.005-7.123,3.031c-0.037,0.001-0.072,0.001-0.105,0.001c-5.524,0-10.049-4.469-10.108-10.008
		C65.176,53.963,66.204,51.413,68.096,49.484z"/>
</g>
<g id="_x3C_Group_x3E_" display="none">
	<g display="inline">
		<path fill="none" stroke="#262626" stroke-width="2" stroke-linecap="round" stroke-linejoin="round" stroke-miterlimit="10" d="
			M31.584,132.484c0,5.498,4.497,9.995,9.995,9.995h54.973c5.498,0,9.995-4.497,9.995-9.995V119.99H31.584V132.484z"/>
		<path fill="none" stroke="#262626" stroke-width="2" stroke-linecap="round" stroke-linejoin="round" stroke-miterlimit="10" d="
			M96.552,17.542H41.579c-5.498,0-9.995,4.497-9.995,9.995v7.496h74.963v-7.496C106.547,22.039,102.05,17.542,96.552,17.542z"/>
		
			<rect x="31.584" y="35.033" fill="none" stroke="#262626" stroke-width="2" stroke-linecap="round" stroke-linejoin="round" stroke-miterlimit="10" width="74.963" height="84.958"/>
		
			<circle fill="none" stroke="#262626" stroke-width="2" stroke-linecap="round" stroke-linejoin="round" stroke-miterlimit="10" cx="69.066" cy="131.235" r="1.874"/>
	</g>
</g>
<rect x="-279.5" y="41.533" display="none" fill="#FFFFFF" width="596" height="570"/>
<g id="_x3C_Group_x3E__4_" display="none">
	<g display="inline">
		<path fill="#1976A4" stroke="#1976A4" stroke-miterlimit="10" d="M100.065,127.22h-50.13c-4.596,0-8.355-3.762-8.355-8.355V31.136
			c0-4.595,3.759-8.355,8.355-8.355h50.13c4.596,0,8.354,3.76,8.354,8.355v87.729C108.42,123.458,104.661,127.22,100.065,127.22z"/>
		<rect x="47.846" y="41.579" fill="#1976A4" stroke="#1976A4" stroke-miterlimit="10" width="54.308" height="66.84"/>
		<path fill="#1976A4" stroke="#1976A4" stroke-miterlimit="10" d="M81.059,32.389H71.031c-0.114,0-0.208-0.094-0.208-0.209l0,0
			c0-0.115,0.094-0.209,0.208-0.209h10.028c0.113,0,0.207,0.094,0.207,0.209l0,0C81.266,32.295,81.172,32.389,81.059,32.389z"/>
		<path fill="#1976A4" stroke="#1976A4" stroke-miterlimit="10" d="M80.014,118.028h-7.939c-0.114,0-0.208-0.094-0.208-0.208l0,0
			c0-0.116,0.094-0.21,0.208-0.21h7.939c0.115,0,0.209,0.094,0.209,0.21l0,0C80.223,117.935,80.129,118.028,80.014,118.028z"/>
	</g>
</g>
<g display="none">
	<g display="inline">
		
			<line fill="#1976A4" stroke="#394553" stroke-width="2.5" stroke-linejoin="round" stroke-miterlimit="10" x1="40.086" y1="112.603" x2="118.281" y2="112.603"/>
		
			<line fill="#1976A4" stroke="#394553" stroke-width="2.5" stroke-linecap="round" stroke-linejoin="round" stroke-miterlimit="10" x1="73.882" y1="124.482" x2="84.509" y2="124.482"/>
	</g>
	
		<line display="inline" fill="#1976A4" stroke="#394553" stroke-width="2.5" stroke-linejoin="round" stroke-miterlimit="10" x1="40.095" y1="112.603" x2="118.288" y2="112.603"/>
</g>
<image display="none" overflow="visible" width="512" height="512" xlink:href="phone (1).png"  transform="matrix(0.2373 0 0 0.2226 14.0005 20.5)">
</image>
<g id="_x3C_Group_x3E__1_">
	<g>
		<path fill="none" stroke="#262626" stroke-width="2" stroke-linecap="round" stroke-linejoin="round" stroke-miterlimit="10" d="
			M37.502,125.372c0,5.501,4.5,10,10,10h54.998c5.501,0,10-4.499,10-10v-12.499H37.502V125.372z"/>
		<path fill="none" stroke="#262626" stroke-width="2" stroke-linecap="round" stroke-linejoin="round" stroke-miterlimit="10" d="
			M102.499,10.377H47.501c-5.5,0-10,4.5-10,10v7.5h74.997v-7.5C112.499,14.876,108,10.377,102.499,10.377z"/>
		
			<rect x="37.502" y="27.876" fill="none" stroke="#262626" stroke-width="2" stroke-linecap="round" stroke-linejoin="round" stroke-miterlimit="10" width="74.997" height="84.997"/>
		
			<circle fill="none" stroke="#262626" stroke-width="2" stroke-linecap="round" stroke-linejoin="round" stroke-miterlimit="10" cx="75.002" cy="124.124" r="1.875"/>
	</g>
</g>
</svg>
